<svg width="204" height="96" viewBox="0 0 204 96" fill="none" xmlns="http://www.w3.org/2000/svg">
<mask id="mask0_15444_197985" style="mask-type:alpha" maskUnits="userSpaceOnUse" x="0" y="33" width="31" height="34">
<path d="M0.335938 33.3037H30.1336V66.0007H0.335938V33.3037Z" fill="white"/>
</mask>
<g mask="url(#mask0_15444_197985)">
<path fill-rule="evenodd" clip-rule="evenodd" d="M5.09368 61.7165C2.02603 58.9157 0.335938 54.7657 0.335938 50.0405C0.383132 39.8743 8.02342 33.3037 19.8022 33.3037C23.896 33.3037 27.0754 33.9912 28.884 34.6839C28.6863 35.3929 27.7193 38.9104 27.4928 39.7232C25.3087 38.8685 22.8918 38.46 19.7492 38.46C12.261 38.46 7.6123 42.7442 7.6123 49.6504C7.6123 56.5366 12.1514 60.9886 19.175 60.9886C20.8903 60.9886 22.4734 60.8009 23.2059 60.5114L23.5311 60.3856V52.5722H18.1351V47.76H30.1331V64.2597C27.3538 65.1187 23.0832 66.0007 18.9658 66.0007C12.8357 66.0007 8.29977 64.5985 5.09368 61.7165Z" fill="white"/>
</g>
<path fill-rule="evenodd" clip-rule="evenodd" d="M196.778 35.754H202.229V7.12891H196.777L196.778 35.754Z" fill="#006EB7"/>
<path fill-rule="evenodd" clip-rule="evenodd" d="M185.012 28.2321H190.467V16.4465H185.012V28.2321Z" fill="#EC1A3A"/>
<path fill-rule="evenodd" clip-rule="evenodd" d="M172.7 23.9434H178.153V0H172.699L172.7 23.9434Z" fill="#F6931D"/>
<path fill-rule="evenodd" clip-rule="evenodd" d="M48.1667 61.2864C52.185 61.2864 54.4839 57.7158 54.4839 52.8558C54.4839 48.4022 52.2621 44.5695 48.1667 44.5695C44.0712 44.5695 41.7718 48.3262 41.7718 52.9649C41.7718 57.6419 44.1535 61.2864 48.1326 61.2864H48.1667ZM47.894 65.7415C40.1399 65.7415 35.5353 60.1836 35.5353 53.1143C35.5353 45.6775 40.6035 40.1164 48.324 40.1164C56.3922 40.1164 60.8012 45.8238 60.8012 52.6728C60.8012 60.8453 55.614 65.7415 47.9328 65.7415H47.8935H47.894ZM66.6691 40.9261H72.5946V61.031H84.5925V65.7415H66.6691V40.9261ZM90.6518 40.9261H108.996V45.5291H96.5763V51.1967H108.329V55.763H96.5763V65.7421H90.6513L90.6518 40.9261ZM113.19 62.7221L125.707 45.6775V45.5669H114.323V40.9261H133.388V44.1662L121.145 60.9597V61.1044H133.582V65.7415H113.19L113.19 62.7221ZM150.017 61.2864C154.037 61.2864 156.335 57.7158 156.335 52.8558C156.335 48.4022 154.109 44.5695 150.017 44.5695C145.924 44.5695 143.622 48.3262 143.622 52.9649C143.622 57.6419 146.003 61.2864 149.979 61.2864H150.017ZM149.746 65.7415C141.985 65.7415 137.386 60.1836 137.386 53.1143C137.386 45.6775 142.454 40.1164 150.174 40.1164C158.246 40.1164 162.649 45.8238 162.649 52.6728C162.649 60.8453 157.464 65.7415 149.781 65.7415H149.746ZM167.971 65.7421V40.9255H174.918L184.939 58.5255H185.019V32.9329H190.467V65.7415H183.769L173.313 47.408H173.349L173.343 65.7415L167.971 65.7421Z" fill="white"/>
</svg>
