<svg width="101" height="44" viewBox="0 0 101 44" fill="none" xmlns="http://www.w3.org/2000/svg">
<path d="M1.672 43C1.07467 43 0.776 42.7013 0.776 42.104V1.976C0.776 1.37866 1.07467 1.08 1.672 1.08H10.44C11.0373 1.08 11.336 1.37866 11.336 1.976V42.104C11.336 42.7013 11.0373 43 10.44 43H1.672Z" fill="#F25019"/>
<path d="M18.325 43C17.7277 43 17.429 42.7013 17.429 42.104L18.325 1.976C18.325 1.37866 18.6023 1.08 19.157 1.08H29.333C29.8023 1.08 30.1223 1.29333 30.293 1.72L40.277 22.712L50.261 1.72C50.4743 1.29333 50.8157 1.08 51.285 1.08H61.397C61.9943 1.08 62.293 1.37866 62.293 1.976L63.125 42.104C63.125 42.7013 62.8477 43 62.293 43H53.717C53.1197 43 52.821 42.7013 52.821 42.104L52.437 27.768C52.3943 25.976 52.4157 24.0987 52.501 22.136C52.5863 20.1307 52.6717 18.2533 52.757 16.504H52.501C51.7757 18.2107 50.9863 20.0027 50.133 21.88C49.2797 23.7573 48.3837 25.5707 47.445 27.32L41.557 38.712C41.3437 39.1387 40.981 39.352 40.469 39.352H40.085C39.573 39.352 39.2317 39.1387 39.061 38.712L33.109 27.256C32.2557 25.5493 31.381 23.7573 30.485 21.88C29.6317 19.96 28.8423 18.168 28.117 16.504H27.861C27.9463 18.296 28.0317 20.1733 28.117 22.136C28.2023 24.0987 28.2237 25.976 28.181 27.768L27.797 42.104C27.797 42.7013 27.4983 43 26.901 43H18.325ZM83.3275 43.768C77.5675 43.768 73.3648 42.68 70.7195 40.504C68.1168 38.328 67.0288 35.0213 67.4555 30.584C67.5408 29.944 67.8608 29.624 68.4155 29.624H76.9915C77.5888 29.624 77.8662 29.9013 77.8235 30.456C77.7808 31.864 78.2288 32.952 79.1675 33.72C80.1488 34.4453 81.6422 34.808 83.6475 34.808C85.6528 34.808 87.1035 34.552 87.9995 34.04C88.9382 33.528 89.4075 32.7173 89.4075 31.608C89.4075 31.1387 89.3008 30.712 89.0875 30.328C88.8742 29.9013 88.4902 29.5173 87.9355 29.176C87.3808 28.792 86.6128 28.408 85.6315 28.024L76.4795 23.992C74.2608 23.0107 72.5328 21.9653 71.2955 20.856C70.0582 19.704 69.1835 18.424 68.6715 17.016C68.1595 15.5653 67.9035 13.9013 67.9035 12.024C67.9462 8.312 69.2262 5.432 71.7435 3.384C74.2608 1.336 78.0368 0.311996 83.0715 0.311996C86.8262 0.311996 89.9408 0.802663 92.4155 1.784C94.8902 2.72266 96.6822 4.13066 97.7915 6.008C98.9435 7.84267 99.3702 10.2107 99.0715 13.112C99.0288 13.8373 98.7302 14.2 98.1755 14.2H89.5995C89.3008 14.2 89.0662 14.1147 88.8955 13.944C88.7675 13.7307 88.7248 13.4533 88.7675 13.112C88.8528 11.96 88.4048 11 87.4235 10.232C86.4848 9.464 85.1195 9.08 83.3275 9.08C81.7062 9.08 80.4902 9.35733 79.6795 9.912C78.8688 10.424 78.4635 11.192 78.4635 12.216C78.4635 12.728 78.5915 13.1973 78.8475 13.624C79.1035 14.008 79.5088 14.392 80.0635 14.776C80.6182 15.1173 81.3648 15.5013 82.3035 15.928L91.3915 19.832C93.5675 20.7707 95.2955 21.7947 96.5755 22.904C97.8555 24.0133 98.7515 25.3147 99.2635 26.808C99.7755 28.2587 100.01 29.944 99.9675 31.864C99.9248 35.7893 98.6022 38.7547 95.9995 40.76C93.3968 42.7653 89.1728 43.768 83.3275 43.768Z" fill="white"/>
</svg>
